<mxfile host="app.diagrams.net" agent="Mozilla/5.0 (Macintosh; Intel Mac OS X 10_15_7) AppleWebKit/605.1.15 (KHTML, like Gecko) Version/18.3 Safari/605.1.15" version="26.0.15">
  <diagram name="Page-1" id="hCmtunwDwNxtnaDAyGnT">
    <mxGraphModel dx="1434" dy="1904" grid="1" gridSize="10" guides="1" tooltips="1" connect="1" arrows="1" fold="1" page="1" pageScale="1" pageWidth="827" pageHeight="1169" math="0" shadow="0">
      <root>
        <mxCell id="0" />
        <mxCell id="1" parent="0" />
        <mxCell id="2" value="User Authentication" style="whiteSpace=wrap;strokeWidth=2;verticalAlign=top;" parent="1" vertex="1">
          <mxGeometry x="8" width="762" height="1020" as="geometry" />
        </mxCell>
        <mxCell id="4" value="Input credentials" style="whiteSpace=wrap;strokeWidth=2;" parent="2" vertex="1">
          <mxGeometry x="282.4195804195804" y="180.75871313672923" width="277.09090909090924" height="35.549597855227894" as="geometry" />
        </mxCell>
        <mxCell id="5" value="Authenticate with credentials" style="whiteSpace=wrap;strokeWidth=2;" parent="2" vertex="1">
          <mxGeometry x="282.4195804195804" y="250.4906166219839" width="277.09090909090924" height="35.549597855227894" as="geometry" />
        </mxCell>
        <mxCell id="6" value="Credentials valid?" style="rhombus;strokeWidth=2;whiteSpace=wrap;" parent="2" vertex="1">
          <mxGeometry x="240" y="320.2184" width="190.56" height="81.48780000000001" as="geometry" />
        </mxCell>
        <mxCell id="7" value="Generate access token" style="whiteSpace=wrap;strokeWidth=2;" parent="2" vertex="1">
          <mxGeometry x="71.40419580419584" y="446.9249329758714" width="237.65874125874132" height="24.611260053619308" as="geometry" />
        </mxCell>
        <mxCell id="8" value="Access token generated?" style="rhombus;strokeWidth=2;whiteSpace=wrap;" parent="2" vertex="1">
          <mxGeometry x="67.14125874125875" y="505.7184986595174" width="245.11888111888118" height="104.82573726541555" as="geometry" />
        </mxCell>
        <mxCell id="9" value="Login successful" style="whiteSpace=wrap;strokeWidth=2;" parent="2" vertex="1">
          <mxGeometry x="72.4699300699301" y="654.7533512064343" width="186.50349650349656" height="24.611260053619308" as="geometry" />
        </mxCell>
        <mxCell id="15" value="Login unsuccessful" style="whiteSpace=wrap;strokeWidth=2;" parent="2" vertex="1">
          <mxGeometry x="501.9608391608392" y="654.7533512064343" width="204.62097902097906" height="24.611260053619308" as="geometry" />
        </mxCell>
        <mxCell id="16" value="Display error message" style="whiteSpace=wrap;strokeWidth=2;" parent="2" vertex="1">
          <mxGeometry x="361.2839160839161" y="446.9249329758714" width="231.26433566433576" height="24.611260053619308" as="geometry" />
        </mxCell>
        <mxCell id="17" value="End process" style="whiteSpace=wrap;strokeWidth=2;" parent="2" vertex="1">
          <mxGeometry x="399.65034965034977" y="545.8257372654157" width="153.4657342657343" height="24.611260053619308" as="geometry" />
        </mxCell>
        <mxCell id="18" value="" style="curved=1;startArrow=none;endArrow=block;exitX=0.5;exitY=0.99;entryX=0.5;entryY=-0.01;" parent="2" edge="1">
          <mxGeometry relative="1" as="geometry">
            <Array as="points" />
            <mxPoint x="419.9650349650351" y="149.57640750670225" as="sourcePoint" />
            <mxPoint x="419.9650349650351" y="180.75871313672928" as="targetPoint" />
          </mxGeometry>
        </mxCell>
        <mxCell id="19" value="" style="curved=1;startArrow=none;endArrow=block;exitX=0.5;exitY=0.99;entryX=0.5;entryY=-0.01;" parent="2" source="4" target="5" edge="1">
          <mxGeometry relative="1" as="geometry">
            <Array as="points" />
          </mxGeometry>
        </mxCell>
        <mxCell id="20" value="" style="curved=1;startArrow=none;endArrow=block;exitX=0.34;exitY=0.99;entryX=0.5;entryY=0;" parent="2" source="5" target="6" edge="1">
          <mxGeometry relative="1" as="geometry">
            <Array as="points">
              <mxPoint x="333.5748251748252" y="302.90348525469165" />
            </Array>
          </mxGeometry>
        </mxCell>
        <mxCell id="21" value="Yes" style="curved=1;startArrow=none;endArrow=block;exitX=0.01;exitY=0.99;entryX=0.5;entryY=-0.01;" parent="2" source="6" target="7" edge="1">
          <mxGeometry relative="1" as="geometry">
            <Array as="points">
              <mxPoint x="189.70069930069934" y="424.5924932975871" />
            </Array>
          </mxGeometry>
        </mxCell>
        <mxCell id="22" value="" style="curved=1;startArrow=none;endArrow=block;exitX=0.5;exitY=0.99;entryX=0.5;entryY=0;" parent="2" source="7" target="8" edge="1">
          <mxGeometry relative="1" as="geometry">
            <Array as="points" />
          </mxGeometry>
        </mxCell>
        <mxCell id="23" value="Yes" style="curved=1;startArrow=none;endArrow=block;exitX=0.43;exitY=1;entryX=0.5;entryY=0;" parent="2" source="8" target="9" edge="1">
          <mxGeometry relative="1" as="geometry">
            <Array as="points">
              <mxPoint x="165.18881118881126" y="632.4209115281501" />
            </Array>
          </mxGeometry>
        </mxCell>
        <mxCell id="26" value="" style="curved=1;startArrow=none;endArrow=block;exitX=0.5;exitY=0.99;entryX=0.5;entryY=0;" parent="2" target="12" edge="1">
          <mxGeometry relative="1" as="geometry">
            <Array as="points" />
            <mxPoint x="165.72167832167835" y="767.9624664879358" as="sourcePoint" />
          </mxGeometry>
        </mxCell>
        <mxCell id="29" value="No" style="curved=1;startArrow=none;endArrow=block;exitX=1;exitY=0.97;entryX=0.1;entryY=0;" parent="2" source="8" target="15" edge="1">
          <mxGeometry relative="1" as="geometry">
            <Array as="points">
              <mxPoint x="373.0069930069931" y="632.4209115281501" />
            </Array>
          </mxGeometry>
        </mxCell>
        <mxCell id="30" value="Retry" style="curved=1;startArrow=none;endArrow=block;exitX=0.58;exitY=0;entryX=0.93;entryY=0.99;" parent="2" source="15" target="5" edge="1">
          <mxGeometry relative="1" as="geometry">
            <Array as="points">
              <mxPoint x="652.2293706293709" y="632.4209115281501" />
              <mxPoint x="652.2293706293709" y="302.90348525469165" />
            </Array>
          </mxGeometry>
        </mxCell>
        <mxCell id="31" value="No" style="curved=1;startArrow=none;endArrow=block;exitX=0.98;exitY=0.99;entryX=0.5;entryY=-0.01;" parent="2" source="6" target="16" edge="1">
          <mxGeometry relative="1" as="geometry">
            <Array as="points">
              <mxPoint x="477.44895104895113" y="424.5924932975871" />
            </Array>
          </mxGeometry>
        </mxCell>
        <mxCell id="32" value="" style="curved=1;startArrow=none;endArrow=block;exitX=0.5;exitY=0.99;entryX=0.5;entryY=-0.01;" parent="2" source="16" target="17" edge="1">
          <mxGeometry relative="1" as="geometry">
            <Array as="points" />
          </mxGeometry>
        </mxCell>
        <mxCell id="6__TalXEhxnTEzsIAobJ-36" value="Start" style="strokeWidth=2;html=1;shape=mxgraph.flowchart.start_2;whiteSpace=wrap;" vertex="1" parent="2">
          <mxGeometry x="395.97" y="100" width="50" height="50" as="geometry" />
        </mxCell>
        <mxCell id="6__TalXEhxnTEzsIAobJ-38" value="" style="ellipse;html=1;shape=endState;fillColor=#000000;strokeColor=#ff0000;" vertex="1" parent="2">
          <mxGeometry x="150.72000000000003" y="720" width="30" height="30" as="geometry" />
        </mxCell>
        <mxCell id="6__TalXEhxnTEzsIAobJ-39" value="" style="curved=1;startArrow=none;endArrow=block;exitX=0.5;exitY=1;entryX=0.5;entryY=0;entryDx=0;entryDy=0;exitDx=0;exitDy=0;" edge="1" parent="2" source="9" target="6__TalXEhxnTEzsIAobJ-38">
          <mxGeometry relative="1" as="geometry">
            <Array as="points" />
            <mxPoint x="200" y="482" as="sourcePoint" />
            <mxPoint x="200" y="516" as="targetPoint" />
          </mxGeometry>
        </mxCell>
      </root>
    </mxGraphModel>
  </diagram>
</mxfile>
